<?xml version="1.0"?>
<svg width="650" height="500" xmlns="http://www.w3.org/2000/svg" xmlns:svg="http://www.w3.org/2000/svg" version="1.1">
 <title>Eye of Horus - Binance Style</title>
 <defs>
  <!-- Subtle pupil gradient - balanced and harmonious -->
 </defs>
 <!-- Background -->
 <!-- Eye of Horus Paths with Binance Colors -->
 <!-- Main eye shape (originally black outline, now Binance yellow fill) -->
 <!-- White fill areas (now Binance black to create depth) -->
 <!-- Pupil (subtle and balanced - not too prominent) -->
 <!-- Main outline stroke (originally black, now Binance yellow) -->
 <g class="layer">
  <title>Layer 1</title>
  <rect fill="#1E1E1E" height="500" id="svg_1" width="650"/>
  <path d="m620.39,364.82c-0.54,-7.27 -1.78,-14.48 -5.03,-21.28c-9.48,-19.8 -33.96,-29.34 -53.02,-19.28c-15.34,8.09 -22.57,29.33 -13.58,45.15c6.87,12.1 23.07,18.23 35.62,10.23c4.43,-2.83 7.63,-7.28 8.99,-12.29c1.36,-5.01 0.69,-10.8 -2.94,-15.4c-2.23,-2.84 -5.44,-4.77 -9.11,-5.41c-3.66,-0.64 -8.17,0.41 -10.87,4c-1.79,2.37 -1.91,4.54 -1.41,7.11c0.25,1.29 0.78,2.84 2.35,4c1.57,1.16 4.29,1.94 5.58,0.59c1.11,-1.16 -0.67,-3.16 -0.73,-4.76c-0.04,-0.83 -0.07,-1.73 0.26,-2.47c0.9,-1.15 1.85,-1.35 3.47,-1.06c1.66,0.29 3.65,1.45 4.59,2.64l0,0.06c2.02,2.6 2.37,5.6 1.52,8.7c-0.81,3.01 -2.85,5.92 -5.46,7.7l-0.3,0.24c-8.54,5.45 -18.48,0.7 -23.39,-7.94c-6.71,-11.82 -1.51,-26.28 10.29,-32.5c15.07,-7.96 35.74,1.45 40.36,17.08c4.56,15.47 2.87,30.94 0.27,37.51l10.61,0.08c2.56,-12.09 1.93,-15.04 1.93,-22.7z" fill="#F3BA2F" id="svg_2"/>
  <path d="m182.52,260.66c-17.67,-13.59 -26.1,-35.7 -29.52,-57.08c-1.47,-9.39 -1.98,-19.07 -0.14,-28.45c-14.1,0.3 -25.83,9.34 -36.44,17.66c-18.6,15.53 -35.23,33.83 -47.21,54.97c-3.63,6.18 5.34,4.63 8.8,5.92c30.73,5.85 62.04,11.76 93.44,8.92c3.73,-0.42 7.43,-1.05 11.07,-1.94z" fill="#1E1E1E" id="svg_3"/>
  <path d="m366.06,210.87c-10.82,-13.82 -26.52,-22.82 -42.33,-29.82c-12.48,-5.36 -25.72,-9.2 -39.31,-10.13c-3.6,-0.5 -7.2,-0.99 -10.8,-1.48c5.88,13.4 9.33,29.08 3.95,43.22c-5.78,15.24 -17.15,27.38 -25,41.49c-4.6,5.23 5.32,2.77 8.47,3.54c25.45,-0.03 51.38,-4.47 74.25,-16.01c13.05,-6.75 25.18,-16.86 30.77,-30.81z" fill="#1E1E1E" id="svg_4"/>
  <path d="m140.86,465.53c-6.73,0 -8.71,-5.45 -12.18,-25.9c-2.45,-14.77 -7.11,-28.46 -10.5,-43.04c-3.02,-13.12 -5.65,-20.33 -9.67,-26.62c-6.55,-10.23 -6.3,-20.92 0.71,-30.48c6.33,-8.62 6.83,-11.12 6.55,-32.9c-0.14,-10.73 -0.56,-21.29 -0.95,-23.47c-0.88,-5.02 -4.61,-7.69 -13.9,-9.96c-8.48,-2.07 -16.52,-2.29 -41.97,-1.17c-18.14,0.81 -20.45,0.73 -22.75,-0.78c-5.62,-3.68 -2.95,-8.84 12.26,-23.62c15.69,-15.25 23.88,-24.69 38.82,-44.75c26.83,-36.05 30.92,-40.83 57.5,-49.19c19.57,-6.16 26.69,-9.01 62.03,-10.06c24.65,-0.73 38.76,2.6 45.35,3.35c25.22,2.87 66.25,14.87 91.94,26.08c13.58,5.92 14.04,6.17 30.11,16.15c11.98,7.44 18.74,10.46 35.44,15.03c34.89,9.56 56.76,7.76 92,10.38c9.26,0.69 49.3,3.52 74.5,4.48c30.69,1.17 35.84,-2.04 38.43,0.55c2.03,2.03 0.56,8.18 0.6,14.31c0.02,3.74 -0.19,7.66 -0.49,11.6c-8.19,-1.42 -8.03,-1.37 -26.54,-2.92c-1.68,-0.14 -16.72,-1.67 -44.5,-4.17c-11.86,-1.07 -70.32,-2.84 -105.5,-3.92c-16.99,-0.53 -34.35,-4.73 -51,-1.24c-5.76,1.21 2.39,-1.12 -16,7.48c-36.31,14.05 -55.85,23.79 -104.5,32.83c-30.77,4.52 -33.21,4.98 -36.37,7.29c-1.75,1.28 -1.67,1.62 1.67,6.84c3.57,5.57 14.28,15.81 29.7,28.39c51.62,43.56 115.05,77.43 162.89,98.6c22.22,9.51 37.55,14.65 50.11,16.81c61.89,13.65 134.26,-9.5 136.11,-56.96c0.05,-1.26 0.5,-6 -0.14,-12.08c-0.45,-4.24 -0.9,-7.32 -2.29,-11.1c-3.98,-10.75 -12.42,-20.4 -28.68,-21.75c-11.74,0.02 -20.37,6.16 -23.95,16.17c-4.56,12.78 1.32,27.07 14.03,29.56c6.64,1.31 11.22,-0.52 14.27,-4.46c3.34,-4.33 3.72,-12.03 1.35,-15.64c-2.27,-3.47 -7.24,-5.27 -10.82,-3.92c-3.61,1.36 -4.99,0.36 -0.65,-3.19c0.38,-0.25 0.78,-0.46 1.19,-0.63c6.67,-2.79 17.13,4.12 17.91,14.14c0.71,11.49 -7.7,20.28 -19.25,20.94c-6.56,0.37 -14.59,-1.97 -20.02,-7.81c-13.43,-14.42 -9.18,-34.88 2.95,-45.76c4.62,-4.14 7.76,-6.06 14.07,-7.48c19.37,-4.35 37.69,4.52 45.53,24.31c3.56,8.99 3.77,16.2 3.85,23.22c0.7,58.89 -65.74,87.2 -131.95,82.51c-28.01,-2.41 -46.23,-6.81 -80.5,-20.91c-36.58,-12.09 -143.44,-68.32 -207.96,-120.33c-18.84,-15.32 -30.51,-22.81 -33.05,-21.24c-0.62,0.38 -0.99,11.99 -0.99,30.8c-0.01,28.76 -0.1,30.35 -2.07,33.58c-3.28,5.38 -4.94,17.73 -5.99,44.61c-1.63,41.92 -2.67,60.92 -3.44,62.78c-1.4,3.38 -7.03,4.66 -13.29,4.66l-0.01,0zm221.62,-252.27c0.42,-2.17 -4.6,-8.62 -11.23,-13.08c-10.4,-6.99 -22.39,-11.51 -34.09,-15.96c-71.94,-23.52 -145.08,-20.07 -174.03,-4.96c-10.6,5.15 -14.13,7.77 -22.82,15.58c-4.13,3.71 -9.59,9.73 -12.14,13.38c-5.13,7.34 -10.01,13.34 -19.01,23.36c-9.31,10.36 -14.5,16.77 -14.5,17.9c0,1.57 7.89,3.15 17.5,3.58c81.15,10.29 230.44,14.2 270.32,-39.8zm224.18,-69.35c-16.56,-0.5 -42.47,-2.02 -63.5,-4.9c-19.52,-2.67 -39.05,-6.06 -58,-11.46c-17.98,-5.13 -35.12,-12.85 -52.5,-19.76c-7.72,-3.07 -15.32,-6.45 -23,-9.63c-8.32,-3.44 -16.53,-7.17 -25,-10.22c-15.52,-5.6 -30.99,-11.95 -47.24,-14.79c-41.99,-7.35 -85.26,-8.78 -127.76,-5.5c-23.55,1.82 -46.69,7.71 -69.5,13.88c-17.86,4.83 -35.02,11.97 -52.5,18.04c-5.07,1.76 -10.04,6.84 -15.18,5.32c-5.39,-1.6 -10.73,-7.75 -10.31,-13.36c0.43,-5.89 7.83,-9.02 12.75,-12.27c16.82,-11.15 36.5,-17.49 55.66,-23.81c19.22,-6.33 38.92,-12.12 59.07,-14c54.33,-5.05 110.09,-3.43 163.5,7.73c28.29,5.91 53.95,20.76 81,30.92c31.44,11.81 61.76,27.44 94.5,34.91c33.05,7.53 83.75,9.63 101.22,9.59c6.55,-0.02 6.77,0.07 8.36,3.15c1.85,3.58 3.13,14.29 1.8,15.07c-1.34,0.79 -21.6,1.45 -33.38,1.09l0.01,0z" fill="#f3ba2f" id="svg_6" stroke="#f3ba2f" stroke-width="2"/>
  <line fill="none" id="svg_7" transform="matrix(1 0 0 1 0 0)" x1="60" x2="97" y1="95.5" y2="81.5"/>
  <ellipse cx="193" cy="210.5" fill="#f3ba2f" id="svg_8" rx="61" ry="61" stroke="#f3ba2f" stroke-width="2"/>
 </g>
</svg>